<?xml version="1.0" encoding="UTF-8" standalone="no"?><!DOCTYPE svg PUBLIC "-//W3C//DTD SVG 1.1//EN" "http://www.w3.org/Graphics/SVG/1.1/DTD/svg11.dtd"><svg width="100%" height="100%" viewBox="0 0 600 200" version="1.1" xmlns="http://www.w3.org/2000/svg" xmlns:xlink="http://www.w3.org/1999/xlink" xml:space="preserve" xmlns:serif="http://www.serif.com/" style="fill-rule:evenodd;clip-rule:evenodd;stroke-linejoin:round;stroke-miterlimit:1.41421;"><g><rect x="254.293" y="12.586" width="91.414" height="109.696" style="fill:#dfecf9;"/><path d="M348.319,124.894l-96.638,0l0,-114.92l96.638,0c0,38.307 0,76.614 0,114.92Zm-94.026,-112.308l0,109.696l91.414,0l0,-109.696c-30.471,0 -60.943,0 -91.414,0Z" style="fill:#426484;fill-rule:nonzero;"/><circle cx="300" cy="110.415" r="16.977" style="fill:#33b5ff;"/><path d="M300.118,92.133c8.371,0.079 16.246,6.525 17.837,14.824c1.562,8.141 -3.181,17.061 -10.84,20.302c-8.486,3.592 -19.441,-0.441 -23.544,-8.82c-4.237,-8.651 -0.232,-20.421 8.705,-24.597c2.443,-1.142 5.132,-1.718 7.842,-1.709Zm-0.219,2.611c-7.16,0.069 -13.87,5.55 -15.271,12.609c-1.387,6.996 2.684,14.711 9.276,17.501c7.299,3.09 16.732,-0.412 20.221,-7.649c4.443,-9.214 -2.433,-22.206 -13.821,-22.458c-0.135,-0.002 -0.27,-0.003 -0.405,-0.003Z" style="fill:#426484;fill-rule:nonzero;"/><rect x="290.086" y="109.109" width="19.828" height="2.612" style="fill:#fff;fill-rule:nonzero;"/><path d="M301.306,120.329l-2.612,0l0,-19.828l2.612,0c0,6.609 0,13.219 0,19.828Z" style="fill:#fff;fill-rule:nonzero;"/><rect x="262.435" y="27.134" width="75.13" height="2.612" style="fill:#426484;fill-opacity:0.501961;fill-rule:nonzero;"/><rect x="262.435" y="37.698" width="75.13" height="2.612" style="fill:#426484;fill-opacity:0.501961;fill-rule:nonzero;"/><rect x="262.435" y="48.002" width="75.13" height="2.612" style="fill:#426484;fill-opacity:0.501961;fill-rule:nonzero;"/><rect x="262.435" y="58.249" width="75.13" height="2.612" style="fill:#426484;fill-opacity:0.501961;fill-rule:nonzero;"/><rect x="262.435" y="68.813" width="75.13" height="2.612" style="fill:#426484;fill-opacity:0.501961;fill-rule:nonzero;"/><rect x="262.435" y="79.117" width="75.13" height="2.612" style="fill:#426484;fill-opacity:0.501961;fill-rule:nonzero;"/></g><g><path d="M420.573,23.04l6.069,12.138l-12.138,0l6.069,-12.138Z" style="fill:#dfecf9;fill-opacity:0.447059;"/><path d="M393.558,17.682c0.578,0.045 1.091,0.364 1.389,0.858c2.18,4.087 4.551,8.037 6.182,12.38c0.063,0.166 0.099,0.342 0.107,0.519c0.042,0.901 -0.589,1.696 -1.609,1.776c-4.158,0.109 -8.483,0.404 -12.404,-0.007c-0.177,-0.018 -0.35,-0.064 -0.512,-0.136c-0.825,-0.366 -1.254,-1.286 -0.869,-2.234c1.929,-4.125 4.07,-8.146 6.106,-12.219c0.32,-0.599 0.729,-0.96 1.61,-0.937Zm-3.408,12.136l6.637,0l-3.318,-6.637c-1.106,2.212 -2.212,4.424 -3.319,6.637Z" style="fill:#426484;fill-opacity:0.207843;fill-rule:nonzero;"/><circle cx="473.768" cy="62.915" r="6.359" style="fill:#dfecf9;fill-opacity:0.447059;"/><path d="M446.156,57.539c6.159,0.119 10.656,8.934 5.456,13.892c-4.678,4.459 -14.871,0.449 -13.494,-7.257c0.666,-3.723 4.046,-6.66 8.038,-6.635Zm-0.165,3.4c-4,0.077 -6.637,6.955 -1.698,8.975c3.363,1.375 7.942,-2.584 5.883,-6.485c-0.805,-1.525 -2.391,-2.501 -4.185,-2.49Z" style="fill:#426484;fill-opacity:0.207843;fill-rule:nonzero;"/><path d="M460.694,24.332c0,-1.764 -1.433,-3.196 -3.196,-3.196l-6.392,0c-1.764,0 -3.196,1.432 -3.196,3.196l0,6.392c0,1.764 1.432,3.196 3.196,3.196l6.392,0c1.763,0 3.196,-1.432 3.196,-3.196l0,-6.392Z" style="fill:#dfecf9;fill-opacity:0.447059;"/><path d="M499.985,25.572c2.504,0.095 4.672,2.215 4.769,4.769c0.062,4.876 0.588,11.208 -4.769,11.412c-4.876,0.061 -11.208,0.585 -11.412,-4.769c-0.062,-4.885 -0.583,-11.209 4.769,-11.412c2.214,-0.029 4.429,-0.029 6.643,0Zm-6.506,3.398c-2.123,0.027 -1.637,4.508 -1.505,7.966c0.13,2.057 4.556,1.546 7.964,1.416c2.056,-0.131 1.545,-4.556 1.416,-7.964c-0.131,-2.062 -4.516,-1.418 -7.875,-1.418Z" style="fill:#426484;fill-opacity:0.207843;fill-rule:nonzero;"/><path d="M396.242,158.219l11.044,7.887l-10.728,5.68l-0.316,-13.567Z" style="fill:#dfecf9;fill-opacity:0.447059;"/><path d="M393.833,103.766c0.532,-0.23 1.135,-0.188 1.629,0.108c3.84,2.592 7.783,4.974 11.257,8.048c0.8,0.707 0.786,2.073 -0.254,2.732c-3.623,2.041 -7.307,4.326 -10.965,5.798c-0.99,0.399 -2.205,-0.224 -2.33,-1.448c-0.225,-4.548 -0.215,-9.104 -0.321,-13.656c0.002,-0.679 0.197,-1.192 0.984,-1.582Zm2.668,12.32l5.865,-3.106l-6.038,-4.313c0.057,2.473 0.115,4.946 0.173,7.419Z" style="fill:#426484;fill-opacity:0.207843;fill-rule:nonzero;"/><path d="M423.212,138.117c3.102,-1.643 6.954,-0.458 8.596,2.644c1.643,3.102 0.458,6.953 -2.644,8.596c-3.101,1.642 -6.953,0.458 -8.596,-2.644c-1.642,-3.102 -0.457,-6.954 2.644,-8.596Z" style="fill:#dfecf9;fill-opacity:0.447059;"/><path d="M449.763,164.402c5.453,-2.757 13.532,2.837 11.352,9.631c-1.98,6.175 -12.837,7.515 -15.319,0.089c-1.2,-3.589 0.467,-7.896 3.967,-9.72Zm1.446,3.081c-3.521,1.951 -2.514,9.244 2.698,8.726c3.599,-0.357 5.795,-5.946 2.212,-8.451c-1.43,-1 -3.296,-1.143 -4.91,-0.275Z" style="fill:#426484;fill-opacity:0.207843;fill-rule:nonzero;"/><path d="M534.288,46.968c0,-1.764 -1.432,-3.196 -3.196,-3.196l-6.392,0c-1.764,0 -3.196,1.432 -3.196,3.196l0,6.392c0,1.764 1.432,3.196 3.196,3.196l6.392,0c1.764,0 3.196,-1.432 3.196,-3.196l0,-6.392Z" style="fill:#dfecf9;fill-opacity:0.447059;"/><path d="M547.296,150.118c2.503,0.095 4.672,2.216 4.769,4.769c0.061,4.877 0.588,11.208 -4.769,11.412c-4.889,0.062 -11.209,0.584 -11.412,-4.769c-0.063,-4.885 -0.583,-11.209 4.769,-11.412c2.214,-0.029 4.429,-0.029 6.643,0Zm-6.507,3.398c-2.122,0.028 -1.636,4.509 -1.505,7.967c0.131,2.056 4.557,1.545 7.964,1.415c2.056,-0.13 1.546,-4.556 1.416,-7.964c-0.131,-2.062 -4.516,-1.418 -7.875,-1.418Z" style="fill:#426484;fill-opacity:0.207843;fill-rule:nonzero;"/><path d="M522.981,109.532l13.312,2.639l-7.436,9.594l-5.876,-12.233Z" style="fill:#dfecf9;fill-opacity:0.447059;"/><path d="M399.839,65.62c0.494,-0.2 0.677,-0.167 1.013,-0.11l13.312,2.639c2.357,0.535 1.577,1.939 1.013,2.709l-7.436,9.594c-0.492,0.6 -0.71,0.565 -1.012,0.625c-0.747,0.149 -1.46,-0.145 -1.864,-0.931l-5.876,-12.233c-0.386,-0.864 -0.201,-1.797 0.85,-2.293Zm6.9,10.575l4.066,-5.246l-7.279,-1.443c1.071,2.23 2.142,4.459 3.213,6.689Z" style="fill:#426484;fill-opacity:0.207843;fill-rule:nonzero;"/><path d="M444.448,106.081c2.15,-2.774 6.148,-3.28 8.922,-1.13c2.774,2.15 3.281,6.148 1.13,8.922c-2.15,2.774 -6.148,3.28 -8.922,1.13c-2.774,-2.15 -3.28,-6.148 -1.13,-8.922Z" style="fill:#dfecf9;fill-opacity:0.447059;"/><path d="M492.691,79.733c5.419,-2.741 13.295,2.7 11.452,9.331c-1.683,6.053 -11.938,8.146 -15.102,1.171c-1.643,-3.624 -0.196,-8.322 3.391,-10.363c0.086,-0.048 0.172,-0.094 0.259,-0.139Zm1.453,3.077c-3.531,1.952 -2.659,9.339 2.764,8.718c3.282,-0.377 5.402,-4.943 2.971,-7.704c-1.391,-1.581 -3.818,-2.043 -5.735,-1.014Z" style="fill:#426484;fill-opacity:0.207843;fill-rule:nonzero;"/><path d="M490.386,129.974c-1.395,-1.08 -3.404,-0.826 -4.484,0.568l-3.916,5.053c-1.081,1.394 -0.826,3.403 0.568,4.484l5.052,3.915c1.394,1.081 3.404,0.826 4.484,-0.568l3.916,-5.052c1.081,-1.394 0.826,-3.403 -0.568,-4.484l-5.052,-3.916Z" style="fill:#dfecf9;fill-opacity:0.447059;"/><path d="M495.189,162.183c3.448,-1.666 7.507,1.793 10.617,4.753c1.694,1.611 1.989,4.458 0.568,6.443c-2.944,3.899 -6.405,9.218 -10.761,6.099c-3.925,-2.962 -9.319,-6.26 -6.098,-10.761c1.98,-2.623 3.67,-5.505 5.674,-6.534Zm1.453,3.077c-0.925,0.534 -2.878,3.362 -4.41,5.503c-1.158,1.706 2.654,4.013 5.427,5.998c1.704,1.156 4.013,-2.655 5.998,-5.428c1.157,-1.705 -2.655,-4.012 -5.428,-5.997c-0.475,-0.323 -1.03,-0.379 -1.587,-0.076Z" style="fill:#426484;fill-opacity:0.207843;fill-rule:nonzero;"/><path d="M116.214,14.347l2.854,13.268l-11.756,-3.024l8.902,-10.244Z" style="fill:#dfecf9;fill-opacity:0.447059;"/><path d="M91.386,2.428c0.548,0.188 0.966,0.625 1.131,1.177c1.093,4.501 2.405,8.917 2.903,13.53c0.019,0.176 0.011,0.355 -0.026,0.529c-0.184,0.883 -0.993,1.496 -2.001,1.319c-4.053,-0.93 -8.315,-1.722 -12.011,-3.096c-0.166,-0.062 -0.323,-0.15 -0.462,-0.26c-0.708,-0.56 -0.894,-1.558 -0.285,-2.38c2.896,-3.514 5.971,-6.876 8.958,-10.313c0.459,-0.5 0.945,-0.748 1.793,-0.506Zm-6.324,10.904l6.428,1.653l-1.561,-7.254c-1.622,1.867 -3.245,3.734 -4.867,5.601Z" style="fill:#426484;fill-opacity:0.207843;fill-rule:nonzero;"/><path d="M159.382,60.059c3.399,0.874 5.449,4.344 4.575,7.743c-0.874,3.399 -4.344,5.449 -7.743,4.574c-3.399,-0.874 -5.449,-4.344 -4.575,-7.743c0.875,-3.399 4.344,-5.449 7.743,-4.574Z" style="fill:#dfecf9;fill-opacity:0.447059;"/><path d="M132.395,54.132c5.936,1.649 8.095,11.307 1.823,14.813c-5.64,3.153 -14.514,-3.27 -11.259,-10.39c1.572,-3.44 5.577,-5.442 9.436,-4.423Zm-1.006,3.252c-3.893,-0.923 -8.16,5.082 -3.881,8.268c2.915,2.17 8.336,-0.523 7.314,-4.814c-0.4,-1.678 -1.693,-3.018 -3.433,-3.454Z" style="fill:#426484;fill-opacity:0.207843;fill-rule:nonzero;"/><path d="M154.748,25.593c0.439,-1.708 -0.591,-3.452 -2.299,-3.891l-6.191,-1.593c-1.708,-0.439 -3.452,0.591 -3.891,2.299l-1.593,6.191c-0.439,1.708 0.591,3.452 2.299,3.891l6.191,1.593c1.708,0.439 3.452,-0.591 3.891,-2.299l1.593,-6.191Z" style="fill:#dfecf9;fill-opacity:0.447059;"/><path d="M192.492,36.582c2.401,0.716 3.972,3.31 3.43,5.807c-1.154,4.739 -2.223,11.001 -7.461,9.864c-4.739,-1.155 -11.001,-2.225 -9.865,-7.461c1.157,-4.747 2.228,-11.001 7.462,-9.865c2.152,0.525 4.297,1.076 6.434,1.655Zm-7.148,1.671c-2.063,-0.503 -2.708,3.958 -3.442,7.34c-0.386,2.024 4.028,2.632 7.36,3.355c2.024,0.386 2.632,-4.028 3.355,-7.36c0.387,-2.03 -4.02,-2.498 -7.273,-3.335Z" style="fill:#426484;fill-opacity:0.207843;fill-rule:nonzero;"/><path d="M58.973,139.202l8.731,10.39l-11.804,2.829l3.073,-13.219Z" style="fill:#dfecf9;fill-opacity:0.447059;"/><path d="M70.207,85.866c0.571,-0.09 1.145,0.101 1.55,0.511c3.073,3.467 6.299,6.755 8.897,10.598c0.598,0.885 0.245,2.203 -0.926,2.583c-4.018,1.074 -8.155,2.369 -12.064,2.884c-1.059,0.139 -2.08,-0.767 -1.896,-1.984c0.915,-4.46 2.06,-8.87 3.091,-13.305c0.171,-0.657 0.488,-1.105 1.348,-1.287Zm-0.486,12.596l6.454,-1.546l-4.774,-5.681c-0.56,2.409 -1.12,4.818 -1.68,7.227Z" style="fill:#426484;fill-opacity:0.207843;fill-rule:nonzero;"/><path d="M90.102,126.453c3.413,-0.818 6.848,1.289 7.666,4.703c0.818,3.413 -1.289,6.848 -4.702,7.666c-3.414,0.818 -6.849,-1.289 -7.667,-4.702c-0.817,-3.414 1.289,-6.849 4.703,-7.667Z" style="fill:#dfecf9;fill-opacity:0.447059;"/><path d="M109.267,158.524c5.968,-1.311 12.398,6.119 8.595,12.156c-3.457,5.487 -14.304,4.079 -14.859,-3.731c-0.267,-3.774 2.419,-7.53 6.264,-8.425Zm0.632,3.344c-3.895,1.012 -4.737,8.326 0.439,9.123c3.576,0.551 7.094,-4.315 4.248,-7.634c-1.136,-1.324 -2.907,-1.928 -4.687,-1.489Z" style="fill:#426484;fill-opacity:0.207843;fill-rule:nonzero;"/><path d="M220.383,65.85c0.439,-1.708 -0.591,-3.452 -2.299,-3.891l-6.191,-1.593c-1.708,-0.439 -3.452,0.591 -3.891,2.299l-1.593,6.191c-0.439,1.708 0.591,3.452 2.299,3.891l6.191,1.592c1.708,0.44 3.452,-0.59 3.891,-2.299l1.593,-6.19Z" style="fill:#dfecf9;fill-opacity:0.447059;"/><path d="M207.283,168.988c2.401,0.716 3.973,3.31 3.431,5.807c-1.156,4.738 -2.223,11.001 -7.462,9.864c-4.75,-1.158 -11.001,-2.227 -9.864,-7.461c1.156,-4.747 2.227,-11.001 7.461,-9.865c2.152,0.524 4.297,1.076 6.434,1.655Zm-7.148,1.671c-2.063,-0.503 -2.708,3.958 -3.442,7.34c-0.386,2.024 4.028,2.631 7.36,3.355c2.024,0.385 2.632,-4.028 3.355,-7.36c0.387,-2.03 -4.02,-2.499 -7.273,-3.335Z" style="fill:#426484;fill-opacity:0.207843;fill-rule:nonzero;"/><path d="M193.846,123.625l12.234,5.872l-9.591,7.439l-2.643,-13.311Z" style="fill:#dfecf9;fill-opacity:0.447059;"/><path d="M85.525,50.419c0.529,-0.071 0.698,0.007 1.009,0.146l12.235,5.872c2.15,1.106 1.044,2.27 0.306,2.876l-9.591,7.439c-0.627,0.458 -0.829,0.371 -1.136,0.354c-0.761,-0.042 -1.378,-0.505 -1.574,-1.366l-2.643,-13.312c-0.158,-0.932 0.253,-1.79 1.394,-2.009Zm4.048,11.96l5.245,-4.067l-6.69,-3.211c0.482,2.426 0.964,4.852 1.445,7.278Z" style="fill:#426484;fill-opacity:0.207843;fill-rule:nonzero;"/><path d="M118.648,100.718c2.774,-2.151 6.772,-1.646 8.923,1.128c2.151,2.773 1.645,6.771 -1.128,8.922c-2.774,2.151 -6.772,1.646 -8.922,-1.128c-2.151,-2.773 -1.646,-6.771 1.127,-8.922Z" style="fill:#dfecf9;fill-opacity:0.447059;"/><path d="M171.935,87.219c5.931,-1.304 12.203,5.927 8.766,11.889c-3.138,5.443 -13.592,4.916 -14.917,-2.627c-0.689,-3.919 1.882,-8.109 5.865,-9.192c0.095,-0.025 0.19,-0.048 0.286,-0.07Zm0.64,3.342c-3.905,1.011 -4.901,8.382 0.506,9.131c3.272,0.454 6.462,-3.441 4.796,-6.72c-0.954,-1.878 -3.189,-2.93 -5.302,-2.411Z" style="fill:#426484;fill-opacity:0.207843;fill-rule:nonzero;"/><path d="M157.185,135.302c-1.081,-1.394 -3.09,-1.648 -4.484,-0.567l-5.051,3.917c-1.394,1.082 -1.648,3.091 -0.567,4.485l3.918,5.051c1.081,1.393 3.09,1.647 4.484,0.566l5.051,-3.917c1.394,-1.081 1.648,-3.09 0.567,-4.484l-3.918,-5.051Z" style="fill:#dfecf9;fill-opacity:0.447059;"/><path d="M153.814,167.692c3.754,-0.755 6.823,3.606 9.098,7.247c1.238,1.983 0.815,4.813 -1.056,6.382c-3.822,3.043 -8.499,7.332 -11.94,3.226c-3.064,-3.847 -7.467,-8.384 -3.226,-11.941c2.572,-2.047 4.926,-4.416 7.124,-4.914Zm0.64,3.342c-1.029,0.286 -3.625,2.538 -5.642,4.23c-1.546,1.364 1.571,4.548 3.762,7.161c1.362,1.544 4.548,-1.571 7.16,-3.762c1.546,-1.363 -1.571,-4.547 -3.762,-7.161c-0.38,-0.431 -0.903,-0.623 -1.518,-0.468Z" style="fill:#426484;fill-opacity:0.207843;fill-rule:nonzero;"/><path d="M233.99,152.966l8.731,10.389l-11.805,2.829l3.074,-13.218Z" style="fill:#dfecf9;fill-opacity:0.447059;"/><path d="M265.118,140.217c3.413,-0.818 6.848,1.289 7.666,4.702c0.818,3.413 -1.289,6.848 -4.702,7.666c-3.413,0.818 -6.848,-1.289 -7.666,-4.702c-0.818,-3.413 1.289,-6.848 4.702,-7.666Z" style="fill:#dfecf9;fill-opacity:0.447059;"/><path d="M284.283,172.287c5.968,-1.311 12.398,6.119 8.595,12.157c-3.456,5.486 -14.304,4.079 -14.858,-3.731c-0.268,-3.775 2.419,-7.531 6.263,-8.426Zm0.633,3.345c-3.895,1.012 -4.738,8.326 0.439,9.123c3.575,0.551 7.093,-4.315 4.247,-7.634c-1.135,-1.325 -2.906,-1.928 -4.686,-1.489Z" style="fill:#426484;fill-opacity:0.207843;fill-rule:nonzero;"/><path d="M382.3,182.752c2.4,0.716 3.972,3.309 3.43,5.807c-1.155,4.738 -2.223,11.001 -7.462,9.864c-4.749,-1.158 -11,-2.227 -9.864,-7.462c1.156,-4.746 2.228,-11 7.462,-9.864c2.151,0.524 4.296,1.076 6.434,1.655Zm-7.149,1.67c-2.062,-0.502 -2.707,3.959 -3.442,7.341c-0.386,2.024 4.028,2.631 7.361,3.354c2.023,0.386 2.631,-4.027 3.355,-7.36c0.387,-2.029 -4.021,-2.498 -7.274,-3.335Z" style="fill:#426484;fill-opacity:0.207843;fill-rule:nonzero;"/><path d="M368.862,137.388l12.235,5.872l-9.592,7.439l-2.643,-13.311Z" style="fill:#dfecf9;fill-opacity:0.447059;"/><path d="M332.202,149.066c-1.081,-1.394 -3.09,-1.648 -4.484,-0.567l-5.051,3.917c-1.394,1.081 -1.648,3.09 -0.567,4.484l3.917,5.051c1.081,1.394 3.091,1.648 4.484,0.567l5.051,-3.917c1.394,-1.081 1.648,-3.091 0.567,-4.484l-3.917,-5.051Z" style="fill:#dfecf9;fill-opacity:0.447059;"/><path d="M256.798,190.771c3.754,-0.755 6.823,3.606 9.098,7.247c1.239,1.983 0.815,4.813 -1.055,6.382c-3.822,3.043 -8.5,7.331 -11.941,3.226c-3.063,-3.847 -7.466,-8.385 -3.226,-11.941c2.572,-2.047 4.927,-4.417 7.124,-4.914Zm0.64,3.342c-1.028,0.286 -3.624,2.538 -5.642,4.23c-1.545,1.364 1.572,4.548 3.762,7.161c1.362,1.544 4.548,-1.571 7.161,-3.762c1.545,-1.363 -1.572,-4.547 -3.762,-7.161c-0.381,-0.431 -0.903,-0.623 -1.519,-0.468Z" style="fill:#426484;fill-opacity:0.207843;fill-rule:nonzero;"/><path d="M124.19,100.423l185.624,0" style="fill:#426484;"/></g><g><path d="M230.189,178.076l-6.119,0l-8.48,-18.737c0.214,1.653 0.375,3.151 0.483,4.491c0.107,1.341 0.161,2.939 0.161,4.794l0,9.452l-4.294,0l0,-23.162l5.975,0l8.624,18.771c-0.143,-0.894 -0.286,-2.073 -0.429,-3.536c-0.144,-1.464 -0.215,-2.922 -0.215,-4.374l0,-10.861l4.294,0l0,23.162Z" style="fill:#426484;fill-rule:nonzero;"/><path d="M245.468,154.412c2.218,0 4.139,0.469 5.761,1.407c1.622,0.939 2.868,2.313 3.739,4.123c0.871,1.81 1.306,3.989 1.306,6.536c0,2.526 -0.441,4.693 -1.324,6.503c-0.883,1.81 -2.135,3.196 -3.757,4.156c-1.622,0.961 -3.531,1.442 -5.725,1.442c-2.219,0 -4.139,-0.469 -5.761,-1.408c-1.622,-0.939 -2.875,-2.313 -3.757,-4.123c-0.883,-1.81 -1.324,-3.989 -1.324,-6.536c0,-2.503 0.441,-4.665 1.324,-6.486c0.882,-1.821 2.141,-3.212 3.775,-4.173c1.634,-0.961 3.548,-1.441 5.743,-1.441Zm0,3.385c-1.909,0 -3.364,0.698 -4.366,2.095c-1.002,1.397 -1.503,3.603 -1.503,6.62c0,5.788 1.957,8.681 5.869,8.681c1.908,0 3.357,-0.692 4.347,-2.078c0.99,-1.385 1.485,-3.597 1.485,-6.637c0,-3.016 -0.495,-5.217 -1.485,-6.603c-0.99,-1.385 -2.439,-2.078 -4.347,-2.078Z" style="fill:#426484;fill-rule:nonzero;"/><path d="M275.346,154.914l-0.501,3.52l-6.441,0l0,19.642l-4.759,0l0,-19.642l-6.655,0l0,-3.52l18.356,0Z" style="fill:#426484;fill-rule:nonzero;"/><path d="M292.772,154.914l-0.501,3.285l-9.124,0l0,6.469l7.943,0l0,3.285l-7.943,0l0,6.805l9.768,0l0,3.318l-14.492,0l0,-23.162l14.349,0Z" style="fill:#426484;fill-rule:nonzero;"/><path d="M309.518,165.808c1.694,0.291 3.059,0.86 4.097,1.71c1.038,0.849 1.557,2.145 1.557,3.888c0,2.413 -0.907,4.128 -2.72,5.145c-1.813,1.017 -4.353,1.525 -7.621,1.525l-7.443,0l0,-23.162l6.476,0c6.823,0 10.234,1.967 10.234,5.9c0,1.363 -0.441,2.475 -1.324,3.335c-0.882,0.86 -1.968,1.413 -3.256,1.659Zm-7.407,-7.642l0,6.268l2.899,0c1.312,0 2.349,-0.274 3.113,-0.821c0.763,-0.548 1.145,-1.358 1.145,-2.431c0,-1.117 -0.4,-1.899 -1.199,-2.346c-0.799,-0.447 -2.046,-0.67 -3.739,-0.67l-2.219,0Zm2.755,16.592c1.742,0 3.072,-0.246 3.99,-0.738c0.919,-0.491 1.378,-1.419 1.378,-2.782c0,-1.318 -0.436,-2.268 -1.306,-2.849c-0.871,-0.581 -2.058,-0.871 -3.561,-0.871l-3.256,0l0,7.24l2.755,0Z" style="fill:#426484;fill-rule:nonzero;"/><path d="M328.805,154.412c2.218,0 4.139,0.469 5.761,1.407c1.622,0.939 2.868,2.313 3.739,4.123c0.871,1.81 1.306,3.989 1.306,6.536c0,2.526 -0.441,4.693 -1.324,6.503c-0.883,1.81 -2.135,3.196 -3.757,4.156c-1.622,0.961 -3.531,1.442 -5.725,1.442c-2.219,0 -4.139,-0.469 -5.761,-1.408c-1.622,-0.939 -2.875,-2.313 -3.757,-4.123c-0.883,-1.81 -1.324,-3.989 -1.324,-6.536c0,-2.503 0.441,-4.665 1.324,-6.486c0.882,-1.821 2.141,-3.212 3.775,-4.173c1.634,-0.961 3.548,-1.441 5.743,-1.441Zm0,3.385c-1.909,0 -3.364,0.698 -4.366,2.095c-1.002,1.397 -1.503,3.603 -1.503,6.62c0,5.788 1.957,8.681 5.869,8.681c1.908,0 3.357,-0.692 4.347,-2.078c0.99,-1.385 1.485,-3.597 1.485,-6.637c0,-3.016 -0.495,-5.217 -1.485,-6.603c-0.99,-1.385 -2.439,-2.078 -4.347,-2.078Z" style="fill:#426484;fill-rule:nonzero;"/><path d="M353.53,154.412c2.219,0 4.139,0.469 5.761,1.407c1.622,0.939 2.869,2.313 3.74,4.123c0.87,1.81 1.306,3.989 1.306,6.536c0,2.526 -0.442,4.693 -1.324,6.503c-0.883,1.81 -2.135,3.196 -3.758,4.156c-1.622,0.961 -3.53,1.442 -5.725,1.442c-2.218,0 -4.138,-0.469 -5.761,-1.408c-1.622,-0.939 -2.874,-2.313 -3.757,-4.123c-0.882,-1.81 -1.324,-3.989 -1.324,-6.536c0,-2.503 0.442,-4.665 1.324,-6.486c0.883,-1.821 2.141,-3.212 3.775,-4.173c1.634,-0.961 3.549,-1.441 5.743,-1.441Zm0,3.385c-1.908,0 -3.363,0.698 -4.365,2.095c-1.002,1.397 -1.503,3.603 -1.503,6.62c0,5.788 1.956,8.681 5.868,8.681c1.909,0 3.358,-0.692 4.348,-2.078c0.99,-1.385 1.485,-3.597 1.485,-6.637c0,-3.016 -0.495,-5.217 -1.485,-6.603c-0.99,-1.385 -2.439,-2.078 -4.348,-2.078Z" style="fill:#426484;fill-rule:nonzero;"/><path d="M373.497,154.914l0,23.162l-4.723,0l0,-23.162l4.723,0Zm13.883,0l-8.552,10.492l9.232,12.67l-5.618,0l-8.73,-12.368l8.552,-10.794l5.116,0Z" style="fill:#426484;fill-rule:nonzero;"/></g></svg>