<?xml version="1.0" encoding="UTF-8" standalone="no"?><!DOCTYPE svg PUBLIC "-//W3C//DTD SVG 1.1//EN" "http://www.w3.org/Graphics/SVG/1.1/DTD/svg11.dtd"><svg width="100%" height="100%" viewBox="0 0 200 200" version="1.1" xmlns="http://www.w3.org/2000/svg" xmlns:xlink="http://www.w3.org/1999/xlink" xml:space="preserve" xmlns:serif="http://www.serif.com/" style="fill-rule:evenodd;clip-rule:evenodd;stroke-linejoin:round;stroke-miterlimit:1.41421;"><rect x="30" y="12.087" width="140" height="168" style="fill:#dfecf9;"/><path d="M174,184.087l-148,0l0,-176l148,0c0,58.667 0,117.334 0,176Zm-144,-172l0,168l140,0l0,-168c-46.667,0 -93.333,0 -140,0Z" style="fill:#426484;fill-rule:nonzero;"/><circle cx="100" cy="161.913" r="26" style="fill:#33b5ff;"/><path d="M100.181,133.913c12.82,0.122 24.88,9.993 27.318,22.704c2.391,12.468 -4.873,26.128 -16.603,31.093c-12.995,5.5 -29.774,-0.676 -36.058,-13.508c-6.488,-13.25 -0.355,-31.276 13.333,-37.671c3.742,-1.749 7.859,-2.631 12.01,-2.618Zm-0.336,4c-10.965,0.104 -21.242,8.499 -23.387,19.31c-2.125,10.714 4.111,22.531 14.205,26.803c11.179,4.732 25.626,-0.631 30.97,-11.714c6.804,-14.112 -3.727,-34.008 -21.168,-34.395c-0.207,-0.003 -0.413,-0.005 -0.62,-0.004Z" style="fill:#426484;fill-rule:nonzero;"/><g><rect x="84.816" y="159.913" width="30.367" height="4" style="fill:#fff;fill-rule:nonzero;"/><path d="M102,177.096l-4,0l0,-30.367l4,0c0,10.122 0,20.245 0,30.367Z" style="fill:#fff;fill-rule:nonzero;"/></g><rect x="42.469" y="34.367" width="115.061" height="4" style="fill:#426484;fill-opacity:0.501961;fill-rule:nonzero;"/><rect x="42.469" y="50.547" width="115.061" height="4" style="fill:#426484;fill-opacity:0.501961;fill-rule:nonzero;"/><rect x="42.469" y="66.327" width="115.061" height="4" style="fill:#426484;fill-opacity:0.501961;fill-rule:nonzero;"/><rect x="42.469" y="82.02" width="115.061" height="4" style="fill:#426484;fill-opacity:0.501961;fill-rule:nonzero;"/><rect x="42.469" y="98.2" width="115.061" height="4" style="fill:#426484;fill-opacity:0.501961;fill-rule:nonzero;"/><rect x="42.469" y="113.98" width="115.061" height="4" style="fill:#426484;fill-opacity:0.501961;fill-rule:nonzero;"/></svg>